Ending_P1:
Ending_P1Loop:
	.byte $F5
	.byte $02
	.byte Transpose
	.byte $0C
	.byte DutySet
	.byte $5B
	.byte PitchSet
	.byte $39
	.byte VolSet
	.byte $11
	.byte $A4
	.byte C3
	.byte NLen+12
	.byte C3
	.byte $86
	.byte E3
	.byte NLen+12
	.byte E3
	.byte $86
	.byte D3
	.byte NLen+12
	.byte C3
	.byte B2
	.byte A2
	.byte NLen+24
	.byte A2
	.byte $86
	.byte A2
	.byte B2
	.byte $A4
	.byte G2
	.byte $86
	.byte A2
	.byte B2
	.byte $A4
	.byte C3
	.byte NLen+12
	.byte C3
	.byte $86
	.byte E3
	.byte NLen+12
	.byte E3
	.byte $86
	.byte D3
	.byte NLen+12
	.byte C3
	.byte B2
	.byte A2
	.byte NLen+24
	.byte A2
	.byte $86
	.byte A2
	.byte B2
	.byte NLen+48
	.byte G2
	.byte NLen+24
	.byte E3
	.byte E3
	.byte $86
	.byte $2B
	.byte NLen+12
	.byte $2B
	.byte $86
	.byte F3
	.byte NLen+12
	.byte E3
	.byte D3
	.byte NLen+48
	.byte C3
	.byte F3
	.byte $A4
	.byte C3
	.byte NLen+12
	.byte C3
	.byte $86
	.byte E3
	.byte NLen+12
	.byte E3
	.byte $86
	.byte D3
	.byte NLen+12
	.byte C3
	.byte B2
	.byte A2
	.byte NLen+24
	.byte A2
	.byte $86
	.byte A2
	.byte B2
	.byte $A4
	.byte G2
	.byte $86
	.byte A2
	.byte B2
	.byte $A4
	.byte C3
	.byte NLen+12
	.byte C3
	.byte $86
	.byte E3
	.byte NLen+12
	.byte E3
	.byte $86
	.byte D3
	.byte NLen+12
	.byte C3
	.byte B2
	.byte A2
	.byte NLen+24
	.byte A2
	.byte $86
	.byte A2
	.byte B2
	.byte NLen+48
	.byte G2
	.byte NLen+24
	.byte E3
	.byte E3
	.byte $86
	.byte $2B
	.byte NLen+12
	.byte $2B
	.byte $86
	.byte F3
	.byte NLen+12
	.byte E3
	.byte D3
	.byte NLen+48
	.byte C3
	.byte $A4
	.byte B2
	.byte $86
	.byte B2
	.byte B2
	.byte NLen+48
	.byte C3
	.byte NLen+12
	.byte NRest
	.byte NRest
	.byte NRest
	.byte NRest
	.byte NRest
	.byte NRest
	.byte NRest
	.byte NRest
	.byte NRest
	.byte NRest
	.byte NRest
	.byte NRest
	.byte $F4
	.word Ending_P1Loop
	.byte $FF
Ending_P2:
Ending_P2Loop:
	.byte Transpose
	.byte NRest
	.byte DutySet
	.byte $17
	.byte PitchSet
	.byte $16
	.byte VolSet
	.byte $14
	.byte NLen+12
	.byte NRest
	.byte $86
	.byte C3
	.byte NRest
	.byte A2
	.byte NLen+12
	.byte G2
	.byte $86
	.byte NRest
	.byte $89
	.byte $20
	.byte NLen+3
	.byte A2
	.byte $86
	.byte $22
	.byte NLen+24
	.byte B2
	.byte $86
	.byte NRest
	.byte NLen+12
	.byte NRest
	.byte $86
	.byte D3
	.byte NRest
	.byte E3
	.byte NLen+12
	.byte F3
	.byte $86
	.byte NRest
	.byte B2
	.byte C3
	.byte D3
	.byte NLen+12
	.byte F3
	.byte $86
	.byte $25
	.byte NLen+12
	.byte D3
	.byte $F4
	.word Ending_P2Loop
	.byte $FF
Ending_Tri:
Ending_TriLoop:
	.byte Transpose
	.byte $0C
	.byte DutySet
	.byte $38
	.byte PitchSet
	.byte $39
	.byte VolSet
	.byte $41
	.byte NLen+12
	.byte C2
	.byte C2
	.byte G2
	.byte $1C
	.byte $1C
	.byte B2
	.byte G2
	.byte $1C
	.byte F2
	.byte C3
	.byte F3
	.byte D3
	.byte $2B
	.byte G2
	.byte D3
	.byte B2
	.byte $F4
	.word Ending_TriLoop
	.byte $FF
Ending_Noise:
Ending_NoiseLoop:
	.byte Transpose
	.byte $01
	.byte DutySet
	.byte NRest
	.byte PitchSet
	.byte NRest
	.byte VolSet
	.byte $53
	.byte NLen+12
	.byte B3
	.byte $86
	.byte C3
	.byte C3
	.byte NLen+12
	.byte B3
	.byte $86
	.byte C3
	.byte C3
	.byte NLen+12
	.byte B3
	.byte $86
	.byte C3
	.byte C3
	.byte NLen+12
	.byte B3
	.byte $86
	.byte C3
	.byte C3
	.byte NLen+12
	.byte B3
	.byte $86
	.byte C3
	.byte C3
	.byte NLen+12
	.byte B3
	.byte $86
	.byte C3
	.byte C3
	.byte NLen+3
	.byte B3
	.byte C3
	.byte $86
	.byte B3
	.byte B3
	.byte NLen+3
	.byte C3
	.byte C3
	.byte $86
	.byte B3
	.byte C3
	.byte NLen+12
	.byte C3
	.byte $F4
	.word Ending_NoiseLoop
	.byte $FF
Ending_End:
	.byte $FF
Ending_Footer:
	.byte NRest
	.word Ending_P1
	.byte $01
	.word Ending_P2
	.byte $02
	.word Ending_Tri
	.byte $03
	.word Ending_Noise
	.byte $04
	.word Ending_End
	.byte $FF