VanillaDome_P1Tri:
	sndspeed 1
	transpose 5
	duty $12
	pitch 0
	volenv $11
	notelen 20
	.byte $15
	.byte NRest
	notelen 30
	.byte NRest
	notelen 10
	.byte $15
	notelen 20
	.byte $15
	.byte NRest
	.byte NRest
	.byte NRest
	.byte C2
	.byte NRest
	notelen 30
	.byte NRest
	notelen 10
	.byte C2
	notelen 20
	.byte C2
	.byte NRest
	.byte NRest
	.byte NRest
VanillaDome_P1TriLoop:
	notelen 20
	.byte $15
	.byte NRest
	notelen 30
	.byte NRest
	notelen 10
	.byte $15
	notelen 20
	.byte $15
	.byte NRest
	.byte NRest
	.byte NRest
	.byte C2
	.byte NRest
	notelen 30
	.byte NRest
	notelen 10
	.byte C2
	notelen 20
	.byte C2
	.byte NRest
	.byte NRest
	.byte NRest
	.byte $15
	.byte NRest
	notelen 30
	.byte NRest
	.byte $8A
	.byte $15
	notelen 20
	.byte $15
	.byte NRest
	.byte NRest
	.byte NRest
	.byte C2
	.byte NRest
	notelen 30
	.byte NRest
	notelen 10
	.byte C2
	notelen 20
	.byte C2
	.byte NRest
	.byte NRest
	.byte NRest
	.byte $1B
	.byte NRest
	notelen 30
	.byte NRest
	notelen 10
	.byte $1B
	notelen 20
	.byte $1B
	.byte NRest
	.byte NRest
	.byte NRest
	.byte $14
	.byte NRest
	notelen 30
	.byte NRest
	notelen 10
	.byte $14
	notelen 20
	.byte $14
	.byte NRest
	.byte NRest
	.byte NRest
	sndjump VanillaDome_P1TriLoop
	.byte $FF
VanillaDome_P2:
	transpose 29
	duty $5B
	pitch $39
	volenv $11
	notelen 20
	.byte NRest
	.byte NRest
	.byte NRest
	.byte NRest
	.byte NRest
	.byte NRest
	.byte NRest
	.byte NRest
	.byte NRest
	.byte NRest
	.byte NRest
	.byte NRest
	.byte NRest
	.byte NRest
	.byte NRest
	.byte NRest
VanillaDome_P2Loop:
	notelen 5
	.byte F4
	.byte D4
	.byte A3
	notelen 40
	.byte F4
	notelen 5
	.byte NRest
	notelen 80
	.byte D4
	notelen 20
	.byte NRest
	notelen 5
	.byte G4
	.byte E4
	.byte C4
	notelen 40
	.byte G4
	notelen 5
	.byte NRest
	notelen 80
	.byte E4
	notelen 20
	.byte NRest
	notelen 5
	.byte F4
	.byte D4
	.byte A3
	notelen 40
	.byte F4
	notelen 5
	.byte NRest
	.byte $D0
	.byte D4
	.byte $94
	.byte NRest
	.byte $85
	.byte G4
	.byte E4
	.byte C4
	.byte $A8
	.byte G4
	.byte $85
	.byte NRest
	.byte $D0
	.byte E4
	.byte $94
	.byte NRest
	.byte $85
	.byte $33
	.byte C4
	.byte G#3
	.byte $BC
	.byte $33
	.byte $85
	.byte NRest
	.byte $94
	.byte NRest
	.byte NRest
	.byte NRest
	.byte NRest
	.byte $85
	.byte D4
	.byte B3
	.byte $2B
	.byte $BC
	.byte D4
	.byte $85
	.byte NRest
	.byte $94
	.byte NRest
	.byte NRest
	.byte NRest
	.byte NRest
	sndjump VanillaDome_P2Loop
	.byte $FF
VanillaDome_Noise:
	.byte Transpose
	.byte NRest
	.byte DutySet
	.byte NRest
	.byte PitchSet
	.byte NRest
	.byte VolSet
	.byte $53
	.byte $94
	.byte B3
	.byte $8A
	.byte C3
	.byte C3
	.byte $9E
	.byte F3
	.byte $8A
	.byte C3
	.byte B3
	.byte F3
	.byte C3
	.byte C3
	.byte $A8
	.byte B3
	.byte $94
	.byte B3
	.byte $8A
	.byte C3
	.byte C3
	.byte $9E
	.byte F3
	.byte $8A
	.byte C3
	.byte B3
	.byte F3
	.byte B3
	.byte B3
	.byte $A8
	.byte F3
VanillaDome_NoiseLoop:
	.byte $94
	.byte B3
	.byte $8A
	.byte C3
	.byte C3
	.byte $9E
	.byte F3
	.byte $8A
	.byte C3
	.byte B3
	.byte F3
	.byte C3
	.byte C3
	.byte $A8
	.byte B3
	.byte $94
	.byte B3
	.byte $8A
	.byte C3
	.byte C3
	.byte $9E
	.byte F3
	.byte $8A
	.byte C3
	.byte B3
	.byte F3
	.byte B3
	.byte B3
	.byte $A8
	.byte F3
	.byte $94
	.byte B3
	.byte $8A
	.byte C3
	.byte C3
	.byte $9E
	.byte F3
	.byte $8A
	.byte C3
	.byte B3
	.byte F3
	.byte C3
	.byte C3
	.byte $A8
	.byte B3
	.byte $94
	.byte B3
	.byte $8A
	.byte C3
	.byte C3
	.byte $9E
	.byte F3
	.byte $8A
	.byte C3
	.byte B3
	.byte F3
	.byte B3
	.byte B3
	.byte $A8
	.byte F3
	.byte $94
	.byte B3
	.byte $8A
	.byte C3
	.byte C3
	.byte $9E
	.byte F3
	.byte $8A
	.byte C3
	.byte B3
	.byte F3
	.byte C3
	.byte C3
	.byte $94
	.byte B3
	.byte $8A
	.byte C3
	.byte C3
	.byte $94
	.byte B3
	.byte $8A
	.byte C3
	.byte C3
	.byte $9E
	.byte F3
	.byte $8A
	.byte C3
	.byte $85
	.byte F3
	.byte F3
	.byte $8A
	.byte B3
	.byte B3
	.byte $85
	.byte F3
	.byte F3
	.byte $8A
	.byte B3
	.byte F3
	.byte $94
	.byte F3
	sndjump VanillaDome_NoiseLoop
	.byte $FF
VanillaDome_End:
	.byte $FF
VanillaDome_Footer:
	mussq1 VanillaDome_P1Tri
	mussq2 VanillaDome_P2
	mustri VanillaDome_P1Tri
	musnoise VanillaDome_Noise
	musdpcm VanillaDome_End
	.byte $FF