Castle_P1:
	sndspeed 1
	transpose 3
	duty $00
	pitch $00
	volenv $33

	callsegment Castle_P1Seg

	callsegment Castle_P1Seg

	callsegment Castle_P1Seg

	callsegment Castle_P1Seg

	notelen 6
	db A3
	db A3
	db A3
	db A3
	db A3
	db A3
	db A3
	db A3
	db A3
	db A3
	db A3
	db A3
	duty $12
	pitch 0
	volenv $11
	notelen 24
	db D3
	notelen 48
	db E3
	notelen 24
	db NRest
	db D3
	notelen 48
	db E3
	notelen 24
	db NRest
	db NRest
	db D3
	db E3
	db F3
	db D#3
	notelen 96
	db E3
	notelen 24
	db NRest
	db NRest
	db NRest
	db NRest
	db NRest
	db NRest
	db NRest
	db NRest
	db NRest
	db NRest
	db NRest
	db NRest
	db NRest
	db NRest
	db NRest
	db NRest
	db NRest
	db NRest
	db NRest
	db NRest
	db NRest
	db NRest
	db NRest
	db NRest
	db NRest
	db NRest
	db NRest
	db NRest
Castle_P1Loop:
	duty $12
	pitch 0
	volenv $11
	notelen 24
	db NRest
	db NRest
	db NRest
	db NRest
	db NRest
	db NRest
	db NRest
	db NRest
	db NRest
	db NRest
	db NRest
	db NRest
	db NRest
	db NRest
	db NRest
	db NRest
	notelen 48
	db C4
	notelen 24
	db A3
	db E3
	db $27
	db $C8
	db A3
	notelen 24
	db NRest
	db E3
	db A3
	db E4
	notelen 48
	db C4
	db B3
	notelen 24
	db NRest
	db NRest
	db NRest
	db NRest
	db NRest
	db NRest
	db NRest
	db NRest
	db NRest
	db NRest
	db NRest
	db NRest
	db NRest
	db NRest
	db NRest
	db NRest
	notelen 48
	db C4
	notelen 24
	db A3
	db E3
	db $27
	db $C8
	db A3
	notelen 24
	db NRest
	db E3
	db A3
	db E4
	notelen 48
	db C4
	db B3
	notelen 24
	db NRest
	db A3
	db E4
	db $39
	notelen 48
	db F4
	db E4
	notelen 24
	db NRest
	db E3
	db D4
	db E4
	notelen 48
	db D4
	db C4
	notelen 24
	db NRest
	db C4
	db B3
	db A3
	notelen 48
	db B3
	db F#3
	notelen 24
	db NRest
	db B3
	db A3
	db B3
	notelen 48
	db A3
	db G#3
	db $F4
	.word Castle_P1Loop
	db $FF
Castle_P1Seg:
	notelen 6
	db A3
	db A3
	db A3
	db A3
	db A3
	db A3
	db A3
	db A3
	db A3
	db A3
	db A3
	db A3
	db A3
	db A3
	db A3
	db A3
	db B3
	db B3
	db B3
	db B3
	db B3
	db B3
	db B3
	db B3
	db B3
	db B3
	db B3
	db B3
	db B3
	db B3
	db B3
	db B3
	db C4
	db C4
	db C4
	db C4
	db C4
	db C4
	db C4
	db C4
	db C4
	db C4
	db C4
	db C4
	db C4
	db C4
	db C4
	db C4
	db B3
	db B3
	db B3
	db B3
	db B3
	db B3
	db B3
	db B3
	db B3
	db B3
	db B3
	db B3
	db B3
	db B3
	db B3
	db B3
	endsegment

Castle_P2:
	transpose $03
	db DutySet
	db $12
	db PitchSet
	db NRest
	db VolSet
	db $11
	notelen 24
	db NRest
	db NRest
	db NRest
	db $0E
	db $E0
	db $10
	notelen 24
	db NRest
	db NRest
	db NRest
	db $0E
	db $E0
	db $10
	notelen 48
	db F2
	notelen 24
	db $1A
	db $15
	db $17
	db $C8
	db $1A
	notelen 24
	db NRest
	db $15
	db $1A
	db A2
	notelen 48
	db F2
	db $1C
	notelen 24
	db NRest
	db NRest
	db NRest
	db $0E
	db $E0
	db $10
	notelen 24
	db NRest
	db NRest
	db NRest
	db $0E
	db $E0
	db $10
	notelen 48
	db F2
	notelen 24
	db $1A
	db $15
	db $17
	db $C8
	db $1A
	notelen 24
	db NRest
	db $15
	db $1A
	db A2
	notelen 48
	db F2
	db $1C
	notelen 24
	db NRest
	db NRest
	db NRest
	db $0E
	db $10
	db DutySet
	db $34
	db PitchSet
	db $39
	db VolSet
	db $41
	db $15
	db $15
	db DutySet
	db $17
	db PitchSet
	db $16
	db VolSet
	db $14
	db $0E
	db $10
	db DutySet
	db E4
	db PitchSet
	db $39
	db VolSet
	db $41
	db $15
	db $15
	db DutySet
	db $12
	db PitchSet
	db NRest
	db VolSet
	db $11
	db NRest
	db $0E
	db $10
	db $11
	db $0F
	db $C8
	db $10
	transpose $0F
	db DutySet
	db $07
	db PitchSet
	db $05
	db VolSet
	db $02
	db $E0
	db E5
	notelen 24
	db NRest
	db DutySet
	db $12
	db PitchSet
	db NRest
	db VolSet
	db $11
	notelen 12
	db $3E
	db B4
	db G4
	db F4
	transpose $0D
	db $86
	db $3E
	db B4
	db G4
	db F4
	transpose $0B
	db $3E
	db B4
	db G4
	db F4
	transpose $09
	db $3E
	db B4
	db G4
	db F4
	transpose $07
	db $3E
	db B4
	db G4
	db F4
	transpose $05
	db $3E
	db B4
	db G4
	db F4
	transpose $03
	db $3E
	db B4
	db G4
	db F4
	transpose $0F
	db SegCall
	db $9C
	db $A3
	transpose $15
	db SegCall
	db $9C
	db $A3
	transpose $14
	db SegCall
	db $9C
	db $A3
	transpose $16
	db SegCall
	db $9C
	db $A3
Castle_P2Loop:
	transpose $0F
	db SegCall
	db $9C
	db $A3
	transpose $15
	db SegCall
	db $9C
	db $A3
	transpose $14
	db SegCall
	db $9C
	db $A3
	transpose $16
	db SegCall
	db $9C
	db $A3
	transpose $0F
	db SegCall
	db $9C
	db $A3
	transpose $15
	db SegCall
	db $9C
	db $A3
	transpose $14
	db SegCall
	db $9C
	db $A3
	transpose $16
	db SegCall
	db $9C
	db $A3
	transpose $0F
	db SegCall
	db $9C
	db $A3
	transpose $15
	db SegCall
	db $9C
	db $A3
	transpose $14
	db SegCall
	db $9C
	db $A3
	transpose $16
	db SegCall
	db $9C
	db $A3
	transpose $0F
	db SegCall
	db $9C
	db $A3
	transpose $15
	db SegCall
	db $9C
	db $A3
	transpose $14
	db SegCall
	db $9C
	db $A3
	transpose $16
	db SegCall
	db $9C
	db $A3
	transpose $17
	db SegCall
	db $9C
	db $A3
	transpose $1A
	db SegCall
	db $9C
	db $A3
	transpose $16
	db SegCall
	db $9C
	db $A3
	transpose $1B
	db SegCall
	db $9C
	db $A3
	transpose $17
	db SegCall
	db $9C
	db $A3
	transpose $16
	db SegCall
	db $9C
	db $A3
	transpose $11
	db SegCall
	db $9C
	db $A3
	transpose $16
	db SegCall
	db $9C
	db $A3
	db $F4
	.word Castle_P2Loop
	db $FF
	db DutySet
	db NRest
	db PitchSet
	db NRest
	db VolSet
	db $33
	db $86
	db E3
	db A3
	db E3
	db A3
	db C4
	db A3
	db C4
	db A3
	db B3
	db $2B
	db A2
	db E3
	db C3
	db $1C
	db B2
	db $20
	db $F1
	db $FF
Castle_Tri:
	transpose $1B
	db DutySet
	db $07
	db PitchSet
	db $05
	db VolSet
	db $02
	notelen 24
	db NRest
	db NRest
	db NRest
	db $0E
	notelen 48
	db $10
	notelen 24
	db NRest
	db NRest
	db NRest
	db NRest
	db NRest
	db $0E
	notelen 48
	db $10
	notelen 24
	db NRest
	db NRest
	db NRest
	db NRest
	db NRest
	db $0E
	notelen 48
	db $10
	notelen 24
	db NRest
	db NRest
	db NRest
	db NRest
	db NRest
	db $0E
	notelen 48
	db $10
	notelen 24
	db NRest
	db NRest
	db NRest
	db NRest
	db NRest
	db $0E
	notelen 48
	db $10
	notelen 24
	db NRest
	db NRest
	db NRest
	db NRest
	db NRest
	db $0E
	notelen 48
	db $10
	notelen 24
	db NRest
	db NRest
	db NRest
	db NRest
	db NRest
	db $0E
	notelen 48
	db $10
	notelen 24
	db NRest
	db NRest
	db NRest
	db NRest
	db NRest
	db $0E
	notelen 48
	db $10
	notelen 24
	db NRest
	db NRest
	db NRest
	db NRest
	db NRest
	db NRest
	db NRest
	db $0E
	db $10
	db NRest
	db NRest
	db $0E
	db $10
	db NRest
	db $0E
	db $10
	db $11
	db $0E
	db $E0
	db $10
	notelen 24
	db NRest
	db NRest
	db NRest
	db NRest
	db NRest
	db NRest
	db NRest
	db NRest
	db NRest
	db NRest
	db NRest
	db NRest
	transpose $0F
	db DutySet
	db $38
	db PitchSet
	db $39
	db VolSet
	db E5
	notelen 48
	db $15
	db $15
	db $1B
	db $1B
	db $1A
	db $1A
	db $1C
	db $1C
	notelen 24
	db $15
	db $15
	db $15
	db $15
	db $1B
	db $1B
	db $1B
	db $1B
	db $1A
	db $1A
	db $1A
	db $1A
	db $1C
	db $1C
	db $1C
	db $1C
Castle_TriLoop:
	transpose $0F
	callsegment Castle_TriPart2
	transpose $15
	callsegment Castle_TriPart2
	transpose $14
	callsegment Castle_TriPart2
	transpose $16
	callsegment Castle_TriPart2
	transpose $0F
	callsegment Castle_TriPart2
	transpose $15
	callsegment Castle_TriPart2
	transpose $14
	callsegment Castle_TriPart2
	transpose $16
	callsegment Castle_TriPart2
	transpose $0F
	callsegment Castle_TriPart2
	transpose $15
	callsegment Castle_TriPart2
	transpose $14
	callsegment Castle_TriPart2
	transpose $16
	callsegment Castle_TriPart2
	transpose $17
	callsegment Castle_TriPart2
	transpose $1A
	callsegment Castle_TriPart2
	transpose $16
	callsegment Castle_TriPart2
	transpose $1B
	callsegment Castle_TriPart2
	transpose $17
	callsegment Castle_TriPart2
	transpose $16
	callsegment Castle_TriPart2
	transpose $11
	callsegment Castle_TriPart2
	transpose $16
	callsegment Castle_TriPart2
	transpose $0F
	callsegment Castle_TriPart2
	transpose $15
	callsegment Castle_TriPart2
	transpose $14
	callsegment Castle_TriPart2
	transpose $16
	callsegment Castle_TriPart2
	sndjump Castle_TriLoop
	db $FF
Castle_TriPart2:
	notelen 6
	db $15
	db NRest
	db $15
	db NRest
	db $15
	db NRest
	db $15
	db NRest
	db $15
	db NRest
	db $15
	db NRest
	db $15
	db NRest
	db $15
	db NRest
	endsegment

Castle_Noise:
	transpose $01
	duty 0
	pitch 0
	volenv $53
	notelen 24
	db NRest
	db NRest
	db NRest
	db NRest
	db NRest
	db NRest
	db NRest
	db NRest
	db NRest
	db NRest
	db NRest
	db NRest
	db NRest
	db NRest
	db NRest
	db NRest
	db NRest
	db NRest
	db NRest
	db NRest
	db NRest
	db NRest
	db NRest
	db NRest
	db NRest
	db NRest
	db NRest
	db NRest
	db NRest
	db NRest
	db NRest
	db NRest
	db NRest
	db NRest
	db NRest
	db NRest
	db NRest
	db NRest
	db NRest
	db NRest
	db NRest
	db NRest
	db NRest
	db NRest
	db NRest
	db NRest
	db NRest
	db NRest
	db NRest
	db NRest
	db NRest
	db NRest
	db NRest
	db NRest
	db NRest
	db NRest
	db NRest
	db NRest
	db NRest
	db NRest
	db NRest
	db NRest
	db NRest
	db NRest
	db NRest
	db NRest
	db NRest
	db NRest
	db NRest
	db B3
	db B3
	db NRest
	db NRest
	db B3
	db B3
	db NRest
	db B3
	db B3
	db B3
	db B3
	notelen 96
	db B3
	db $FF

Castle_End:
	db $FF

Castle_Footer:
	mussq1 Castle_P1
	mussq2 Castle_P2
	mustri Castle_Tri
	musnoise Castle_Noise
	musdpcm Castle_End
	db $FF