Underwater_P1:
	db $F5
	db $01
	db Transpose
	db $05
	db DutySet
	db $07
	db PitchSet
	db $05
	db VolSet
	db $02
	db $AA
	db A3
	db $9C
	db F3
	db $8E
	db C3
	db $9C
	db B2
	db $8E
	db C3
	db $AA
	db D3
Underwater_P1Loop:
	db $8E
	db NRest
	db NRest
	db NRest
	db NRest
	db NRest
	db NRest
	db NRest
	db NRest
	db NRest
	db NRest
	db NRest
	db NRest
	db NRest
	db NRest
	db NRest
	db NRest
	db NRest
	db NRest
	db NRest
	db NRest
	db NRest
	db NRest
	db NRest
	db NRest
	db Transpose
	db $11
	db DutySet
	db $07
	db PitchSet
	db $05
	db VolSet
	db $02
	db $AA
	db E3
	db $9C
	db C3
	db $8E
	db G2
	db $9C
	db A2
	db $8E
	db C3
	db $AA
	db C3
	db $9C
	db G2
	db $8E
	db C3
	db $9C
	db C3
	db $8E
	db $2B
	db $AA
	db E3
	db D3
	db E3
	db $9C
	db C3
	db $8E
	db G2
	db $9C
	db A2
	db $8E
	db C3
	db $AA
	db C3
	db $9C
	db G2
	db $8E
	db C3
	db F3
	db E3
	db D3
	db $AA
	db C3
	db $8E
	db NRest
	db NRest
	db NRest
	db $AA
	db E3
	db $9C
	db C3
	db $8E
	db G2
	db $9C
	db A2
	db $8E
	db C3
	db $AA
	db C3
	db $9C
	db G2
	db $8E
	db C3
	db $9C
	db C3
	db $8E
	db $2B
	db $AA
	db E3
	db D3
	db E3
	db $9C
	db C3
	db $8E
	db G2
	db $9C
	db A2
	db $8E
	db C3
	db $AA
	db C3
	db $9C
	db G2
	db $8E
	db C3
	db F3
	db E3
	db D3
	db $AA
	db C3
	db $8E
	db NRest
	db NRest
	db NRest
	db $AA
	db E3
	db $9C
	db C3
	db $8E
	db G2
	db $AA
	db E3
	db C3
	db $27
	db $9C
	db C3
	db $8E
	db $27
	db $AA
	db D3
	db $8E
	db NRest
	db NRest
	db NRest
	db $AA
	db E3
	db $9C
	db C3
	db $8E
	db G2
	db $AA
	db E3
	db C3
	db $27
	db $9C
	db C3
	db $8E
	db G2
	db $AA
	db $2B
	db $8E
	db NRest
	db NRest
	db NRest
	db $AA
	db E3
	db $9C
	db C3
	db $8E
	db G2
	db $9C
	db A2
	db $8E
	db C3
	db $AA
	db C3
	db $9C
	db G2
	db $8E
	db C3
	db F3
	db E3
	db D3
	db $AA
	db C3
	db $8E
	db NRest
	db NRest
	db NRest
	db $F4
	.word Underwater_P1Loop
	db $FF
Underwater_P2:
	db Transpose
	db $05
	db DutySet
	db $07
	db PitchSet
	db $05
	db VolSet
	db $02
	db $AA
	db E3
	db $9C
	db C3
	db $8E
	db G2
	db $9C
	db $1E
	db $8E
	db G2
	db $AA
	db A2
Underwater_P2Loop:
	db DutySet
	db $17
	db PitchSet
	db $16
	db VolSet
	db $15
	db $8E
	db NRest
	db C3
	db C3
	db NRest
	db A2
	db A2
	db NRest
	db D3
	db D3
	db G2
	db A2
	db B2
	db NRest
	db C3
	db C3
	db NRest
	db A2
	db A2
	db NRest
	db D3
	db D3
	db G2
	db A2
	db B2
	db NRest
	db C3
	db C3
	db NRest
	db E3
	db E3
	db NRest
	db F3
	db F3
	db NRest
	db F#3
	db F#3
	db NRest
	db F3
	db F3
	db NRest
	db E3
	db E3
	db NRest
	db D3
	db D3
	db NRest
	db NRest
	db NRest
	db NRest
	db C3
	db C3
	db NRest
	db E3
	db E3
	db NRest
	db F3
	db F3
	db NRest
	db F#3
	db F#3
	db NRest
	db F3
	db F3
	db NRest
	db E3
	db E3
	db NRest
	db NRest
	db NRest
	db NRest
	db NRest
	db NRest
	db Transpose
	db F2
	db DutySet
	db $5B
	db PitchSet
	db $39
	db VolSet
	db $11
	db $AA
	db E3
	db $9C
	db C3
	db $8E
	db G2
	db $9C
	db A2
	db $8E
	db C3
	db $AA
	db C3
	db $9C
	db G2
	db $8E
	db C3
	db $9C
	db C3
	db $8E
	db $2B
	db $AA
	db E3
	db D3
	db E3
	db $9C
	db C3
	db $8E
	db G2
	db $9C
	db A2
	db $8E
	db C3
	db $AA
	db C3
	db $9C
	db G2
	db $8E
	db C3
	db F3
	db E3
	db D3
	db $AA
	db C3
	db $8E
	db NRest
	db NRest
	db NRest
	db Transpose
	db $05
	db DutySet
	db $17
	db PitchSet
	db $16
	db VolSet
	db $15
	db NRest
	db F3
	db F3
	db NRest
	db F3
	db F3
	db NRest
	db E3
	db E3
	db NRest
	db E3
	db E3
	db NRest
	db $27
	db $27
	db NRest
	db $27
	db $27
	db NRest
	db D3
	db D3
	db NRest
	db NRest
	db NRest
	db NRest
	db F3
	db F3
	db NRest
	db F3
	db F3
	db NRest
	db E3
	db E3
	db NRest
	db E3
	db E3
	db NRest
	db $27
	db $27
	db NRest
	db $27
	db $27
	db NRest
	db D3
	db D3
	db NRest
	db NRest
	db NRest
	db NRest
	db C3
	db C3
	db NRest
	db E3
	db E3
	db NRest
	db F3
	db F3
	db NRest
	db F#3
	db F#3
	db NRest
	db F3
	db F3
	db NRest
	db E3
	db E3
	db NRest
	db NRest
	db NRest
	db NRest
	db NRest
	db NRest
	db $F4
	.word Underwater_P2Loop
	db $FF
Underwater_Tri:
	db Transpose
	db $05
	db DutySet
	db $5B
	db PitchSet
	db $39
	db VolSet
	db $11
	db $8E
	db NRest
	db NRest
	db NRest
	db NRest
	db NRest
	db NRest
	db NRest
	db NRest
	db NRest
	db NRest
	db NRest
	db NRest
Underwater_TriLoop:
	db $8E
	db C3
	db NRest
	db NRest
	db A2
	db NRest
	db NRest
	db D3
	db NRest
	db NRest
	db G2
	db A2
	db B2
	db C3
	db NRest
	db NRest
	db A2
	db NRest
	db NRest
	db D3
	db NRest
	db NRest
	db G2
	db A2
	db B2
	db $AA
	db C3
	db E3
	db F3
	db F#3
	db F3
	db E3
	db D3
	db $8E
	db G2
	db A2
	db B2
	db $AA
	db C3
	db E3
	db F3
	db F#3
	db $2B
	db G2
	db $8E
	db C3
	db $2B
	db E3
	db $AA
	db C3
	db C3
	db E3
	db F3
	db F#3
	db F3
	db E3
	db D3
	db $8E
	db G2
	db A2
	db B2
	db $AA
	db C3
	db E3
	db F3
	db F#3
	db $2B
	db G2
	db $8E
	db C3
	db $2B
	db E3
	db $AA
	db C3
	db F3
	db F3
	db E3
	db E3
	db $27
	db $27
	db D3
	db $8E
	db G2
	db A2
	db B2
	db $AA
	db F3
	db F3
	db E3
	db E3
	db $27
	db $27
	db D3
	db $8E
	db G2
	db A2
	db B2
	db $AA
	db C3
	db E3
	db F3
	db F#3
	db $2B
	db G2
	db $8E
	db C3
	db $2B
	db E3
	db $AA
	db C3
	db $F4
	.word Underwater_TriLoop
	db $FF
Underwater_End:
	db $FF
Underwater_Footer:
	db NRest
	.word Underwater_P1
	db $01
	.word Underwater_P2
	db $02
	.word Underwater_Tri
	db $03
	.word Underwater_End
	db $04
	.word Underwater_End
	db $FF