YoshisIsland_P1:
YoshisIsland_P1Loop:
	.byte $F5
	.byte $01
	.byte Transpose
	.byte NRest
	.byte DutySet
	.byte $12
	.byte PitchSet
	.byte NRest
	.byte VolSet
	.byte $11
	.byte $A4
	.byte C2
	.byte NLen+12
	.byte G2
	.byte NLen+24
	.byte C3
	.byte G2
	.byte NLen+12
	.byte C2
	.byte C2
	.byte NLen+24
	.byte C2
	.byte NLen+12
	.byte NRest
	.byte NRest
	.byte NRest
	.byte NRest
	.byte $A4
	.byte $1A
	.byte NLen+12
	.byte A2
	.byte NLen+24
	.byte D3
	.byte A2
	.byte NLen+12
	.byte $1A
	.byte $1A
	.byte NLen+24
	.byte $1A
	.byte NLen+12
	.byte NRest
	.byte NRest
	.byte NRest
	.byte NRest
	.byte $A4
	.byte C2
	.byte NLen+12
	.byte G2
	.byte NLen+24
	.byte C3
	.byte G2
	.byte NLen+12
	.byte C3
	.byte B2
	.byte $22
	.byte A2
	.byte NLen+48
	.byte $20
	.byte $F4
	.word YoshisIsland_P1Loop
	.byte $FF
YoshisIsland_P2:
YoshisIsland_P2Loop:
	.byte Transpose
	.byte C2
	.byte DutySet
	.byte $38
	.byte PitchSet
	.byte $39
	.byte VolSet
	.byte E5
	.byte $92
	.byte C3
	.byte $86
	.byte C3
	.byte NLen+12
	.byte C3
	.byte G2
	.byte NLen+24
	.byte A2
	.byte G2
	.byte NLen+12
	.byte C3
	.byte C3
	.byte C3
	.byte DutySet
	.byte $0E
	.byte PitchSet
	.byte $0F
	.byte VolSet
	.byte $03
	.byte $2B
	.byte NLen+24
	.byte A3
	.byte $2B
	.byte DutySet
	.byte $38
	.byte PitchSet
	.byte $39
	.byte VolSet
	.byte E5
	.byte $92
	.byte D3
	.byte $86
	.byte D3
	.byte NLen+12
	.byte D3
	.byte A2
	.byte NLen+24
	.byte B2
	.byte A2
	.byte NLen+12
	.byte D3
	.byte D3
	.byte D3
	.byte DutySet
	.byte $0E
	.byte PitchSet
	.byte $0F
	.byte VolSet
	.byte $03
	.byte A3
	.byte NLen+24
	.byte B3
	.byte A3
	.byte DutySet
	.byte $38
	.byte PitchSet
	.byte $39
	.byte VolSet
	.byte E5
	.byte $92
	.byte C3
	.byte $86
	.byte C3
	.byte NLen+12
	.byte C3
	.byte G2
	.byte NLen+24
	.byte A2
	.byte G2
	.byte Transpose
	.byte NRest
	.byte DutySet
	.byte $12
	.byte PitchSet
	.byte NRest
	.byte VolSet
	.byte $11
	.byte NLen+12
	.byte $22
	.byte A2
	.byte $20
	.byte G2
	.byte NLen+48
	.byte $1E
	.byte $F4
	.word YoshisIsland_P2Loop
	.byte $FF
YoshisIsland_Tri:
YoshisIsland_TriLoop:
	.byte Transpose
	.byte NRest
	.byte DutySet
	.byte $12
	.byte PitchSet
	.byte NRest
	.byte VolSet
	.byte $11
	.byte $A4
	.byte C3
	.byte NLen+12
	.byte $2B
	.byte NLen+24
	.byte C4
	.byte $2B
	.byte NLen+12
	.byte C3
	.byte C3
	.byte NLen+24
	.byte C3
	.byte NLen+12
	.byte NRest
	.byte NRest
	.byte NRest
	.byte NRest
	.byte $A4
	.byte D3
	.byte NLen+12
	.byte A3
	.byte NLen+24
	.byte D4
	.byte A3
	.byte NLen+12
	.byte D3
	.byte D3
	.byte NLen+24
	.byte D3
	.byte NLen+12
	.byte NRest
	.byte NRest
	.byte NRest
	.byte NRest
	.byte $A4
	.byte C3
	.byte NLen+12
	.byte $2B
	.byte NLen+24
	.byte C4
	.byte $2B
	.byte NLen+12
	.byte $27
	.byte D3
	.byte $25
	.byte B2
	.byte NLen+48
	.byte $22
	.byte $F4
	.word YoshisIsland_TriLoop
	.byte $FF
YoshisIsland_End:
	.byte $FF
YoshisIsland_Footer:
	.byte NRest
	.word YoshisIsland_P1
	.byte $01
	.word YoshisIsland_P2
	.byte $02
	.word YoshisIsland_Tri
	.byte $03
	.word YoshisIsland_End
	.byte $04
	.word YoshisIsland_End
	.byte $FF