Overworld_P1:
	.byte $F5
	.byte $01
	.byte Transpose
	.byte $05
	.byte DutySet
	.byte $12
	.byte PitchSet
	.byte NRest
	.byte VolSet
	.byte $11
	notelen 24
	.byte A3
	.byte $92
	.byte F3
	.byte $86
	.byte C3
	.byte B2
	.byte $92
	.byte C3
	notelen 24
	.byte D3
Overworld_P1Loop:
	.byte Transpose
	.byte $11
	.byte DutySet
	.byte NRest
	.byte PitchSet
	.byte NRest
	.byte VolSet
	.byte $33
	.byte $92
	.byte $1C
	.byte $86
	.byte $1C
	notelen 12
	.byte $1C
	.byte $86
	.byte $1C
	.byte $1C
	.byte $92
	.byte F2
	.byte $86
	.byte F2
	notelen 12
	.byte F2
	.byte $86
	.byte F2
	.byte F2
	.byte $92
	.byte $1C
	.byte $86
	.byte $1C
	notelen 12
	.byte $1C
	.byte $86
	.byte $1C
	.byte $1C
	notelen 12
	.byte F2
	.byte $A4
	.byte F2
	.byte Transpose
	.byte $05
	.byte $92
	.byte E3
	.byte $86
	.byte E3
	notelen 12
	.byte E3
	.byte $86
	.byte E3
	.byte E3
	.byte $92
	.byte F3
	.byte $86
	.byte F3
	notelen 12
	.byte F3
	.byte $86
	.byte F3
	.byte F3
	.byte $92
	.byte E3
	.byte $86
	.byte E3
	notelen 12
	.byte E3
	.byte $86
	.byte E3
	.byte E3
	.byte $92
	.byte D3
	.byte $86
	.byte D3
	notelen 12
	.byte D3
	.byte $86
	.byte D3
	.byte D3
	.byte $92
	.byte $2B
	.byte $86
	.byte $2B
	notelen 12
	.byte $2B
	.byte $86
	.byte $2B
	.byte $2B
	.byte $92
	.byte A3
	.byte $86
	.byte A3
	notelen 12
	.byte A3
	.byte $86
	.byte A3
	.byte A3
	.byte $92
	.byte E3
	.byte $86
	.byte E3
	notelen 12
	.byte D3
	.byte $86
	.byte D3
	.byte D3
	notelen 12
	.byte C3
	.byte NRest
	.byte NRest
	.byte NRest
	.byte $92
	.byte E3
	.byte $86
	.byte E3
	notelen 12
	.byte E3
	.byte $86
	.byte E3
	.byte E3
	.byte $92
	.byte F3
	.byte $86
	.byte F3
	notelen 12
	.byte F3
	.byte $86
	.byte F3
	.byte F3
	.byte $92
	.byte E3
	.byte $86
	.byte E3
	notelen 12
	.byte E3
	.byte $86
	.byte E3
	.byte E3
	.byte $92
	.byte D3
	.byte $86
	.byte D3
	notelen 12
	.byte D3
	.byte $86
	.byte D3
	.byte D3
	.byte $92
	.byte $2B
	.byte $86
	.byte $2B
	notelen 12
	.byte $2B
	.byte $86
	.byte $2B
	.byte $2B
	.byte $92
	.byte A3
	.byte $86
	.byte A3
	notelen 12
	.byte A3
	.byte $86
	.byte A3
	.byte A3
	.byte $92
	.byte E3
	.byte $86
	.byte E3
	notelen 12
	.byte D3
	.byte $86
	.byte D3
	.byte D3
	notelen 12
	.byte C3
	.byte NRest
	.byte NRest
	.byte NRest
	.byte $92
	.byte E3
	.byte $86
	.byte F3
	notelen 12
	.byte $2B
	.byte $86
	.byte A3
	.byte A3
	.byte $92
	.byte $2B
	.byte $86
	.byte E3
	notelen 12
	.byte C3
	.byte $86
	.byte D3
	.byte D3
	.byte $92
	.byte A3
	.byte $86
	.byte B3
	notelen 12
	.byte C3
	.byte $86
	.byte $25
	.byte $25
	.byte $92
	.byte D3
	.byte $86
	.byte C3
	notelen 12
	.byte B3
	.byte $86
	.byte $2B
	.byte $2B
	.byte $92
	.byte F3
	.byte $86
	.byte E3
	notelen 12
	.byte F3
	.byte $86
	.byte A3
	.byte A3
	.byte $92
	.byte D3
	.byte $86
	.byte C3
	notelen 12
	.byte B3
	.byte $86
	.byte $2B
	.byte $2B
	.byte $92
	.byte C3
	.byte $86
	.byte E3
	notelen 12
	.byte D3
	.byte $86
	.byte C3
	.byte C3
	.byte $92
	.byte B3
	.byte $86
	.byte $2B
	notelen 12
	.byte C3
	.byte NRest
	.byte $92
	.byte E3
	.byte $86
	.byte E3
	notelen 12
	.byte E3
	.byte $86
	.byte E3
	.byte E3
	.byte $92
	.byte F3
	.byte $86
	.byte F3
	notelen 12
	.byte F3
	.byte $86
	.byte F3
	.byte F3
	.byte $92
	.byte E3
	.byte $86
	.byte E3
	notelen 12
	.byte E3
	.byte $86
	.byte E3
	.byte E3
	.byte $92
	.byte F3
	.byte $86
	.byte F3
	notelen 12
	.byte F3
	.byte $86
	.byte F3
	.byte F3
	notelen 12
	.byte NRest
	.byte NRest
	.byte NRest
	.byte NRest
	.byte NRest
	.byte NRest
	.byte $86
	.byte A3
	.byte A3
	.byte B3
	.byte B3
	.byte $92
	.byte C4
	.byte $86
	.byte C3
	notelen 12
	.byte $2B
	.byte $86
	.byte $2B
	.byte $2B
	notelen 12
	.byte C3
	.byte NRest
	.byte NRest
	.byte NRest
	.byte DutySet
	.byte NRest
	.byte PitchSet
	.byte NRest
	.byte VolSet
	.byte $53
	.byte C3
	.byte A2
	.byte C3
	.byte D3
	.byte $92
	.byte E3
	.byte $86
	.byte E3
	.byte $27
	.byte $92
	.byte D3
	notelen 12
	.byte C3
	.byte A2
	.byte $86
	.byte C3
	.byte C3
	.byte D3
	notelen 48
	.byte E3
	.byte $86
	.byte NRest
	notelen 12
	.byte C3
	.byte A2
	.byte C3
	.byte D3
	.byte $86
	.byte E3
	.byte F3
	.byte $2B
	notelen 24
	.byte A3
	.byte $86
	.byte NRest
	notelen 12
	.byte A2
	.byte C3
	.byte $86
	.byte F3
	.byte E3
	.byte D3
	notelen 48
	.byte C3
	.byte $86
	.byte NRest
	sndjump Overworld_P1Loop
	.byte $FF
Overworld_P2:
	.byte Transpose
	.byte $05
	.byte DutySet
	.byte $17
	.byte PitchSet
	.byte $16
	.byte VolSet
	.byte $14
	notelen 24
	.byte E3
	.byte $92
	.byte C3
	.byte $86
	.byte G2
	.byte $1E
	.byte $92
	.byte G2
	notelen 24
	.byte A2
Overworld_P2Loop:
	.byte DutySet
	.byte $17
	.byte PitchSet
	.byte $16
	.byte VolSet
	.byte $14
	notelen 24
	.byte C2
	.byte $15
	.byte $1A
	.byte $13
	.byte C2
	.byte $15
	notelen 12
	.byte $1A
	.byte $A4
	.byte $19
	notelen 12
	.byte C2
	.byte NRest
	.byte $1C
	.byte NRest
	.byte F2
	.byte NRest
	.byte $1E
	.byte NRest
	.byte F2
	.byte NRest
	.byte $1C
	.byte NRest
	.byte $1A
	.byte $13
	.byte $15
	.byte $17
	.byte C2
	.byte NRest
	.byte $1C
	.byte NRest
	.byte F2
	.byte NRest
	.byte $1E
	.byte NRest
	.byte G2
	.byte $13
	.byte $17
	.byte $1A
	.byte C2
	.byte $13
	notelen 24
	.byte C2
	notelen 12
	.byte C2
	.byte NRest
	.byte $1C
	.byte NRest
	.byte F2
	.byte NRest
	.byte $1E
	.byte NRest
	.byte F2
	.byte NRest
	.byte $1C
	.byte NRest
	.byte $1A
	.byte $13
	.byte $15
	.byte $17
	.byte C2
	.byte NRest
	.byte $1C
	.byte NRest
	.byte F2
	.byte NRest
	.byte $1E
	.byte NRest
	.byte G2
	.byte $13
	.byte $17
	.byte $1A
	.byte C2
	.byte $13
	notelen 24
	.byte C2
	notelen 12
	.byte $10
	.byte $11
	.byte $13
	.byte $15
	.byte $13
	.byte $10
	.byte $0C
	.byte $0E
	.byte $15
	.byte $17
	.byte C2
	.byte $19
	.byte $1A
	.byte C2
	.byte $17
	.byte $13
	.byte $11
	.byte $10
	.byte $11
	.byte $15
	.byte $1A
	.byte C2
	.byte $17
	.byte $13
	.byte C2
	.byte $1C
	.byte $1A
	.byte C2
	.byte $17
	.byte $13
	.byte C2
	.byte NRest
	.byte C2
	.byte NRest
	.byte C2
	.byte NRest
	.byte $17
	.byte NRest
	.byte $17
	.byte NRest
	.byte $15
	.byte NRest
	.byte $15
	.byte NRest
	.byte $14
	.byte NRest
	.byte $14
	.byte NRest
	.byte $13
	.byte NRest
	.byte NRest
	.byte NRest
	.byte NRest
	.byte NRest
	.byte $15
	.byte $17
	notelen 24
	.byte C2
	.byte $13
	.byte $A4
	.byte C2
	notelen 12
	.byte NRest
	.byte $10
	.byte $11
	.byte $13
	.byte $15
	.byte $13
	.byte $10
	.byte $0C
	.byte $0E
	.byte $15
	.byte $17
	.byte C2
	.byte $19
	.byte $1A
	.byte C2
	.byte $17
	.byte $13
	.byte $11
	.byte $10
	.byte $11
	.byte $15
	.byte $1A
	.byte C2
	.byte $17
	.byte $13
	.byte C2
	.byte $1C
	.byte $1A
	.byte C2
	.byte $17
	.byte $13
	.byte C2
	.byte NRest
	sndjump Overworld_P2Loop
	.byte $FF
Overworld_Tri:
	.byte Transpose
	.byte $11
	.byte DutySet
	.byte $17
	.byte PitchSet
	.byte $16
	.byte VolSet
	.byte $15
	notelen 12
	.byte NRest
	.byte NRest
	.byte NRest
	.byte NRest
	.byte NRest
	.byte NRest
	.byte NRest
	.byte NRest
Overworld_TriLoop:
	notelen 12
	.byte NRest
	.byte NRest
	.byte NRest
	.byte NRest
	.byte NRest
	.byte NRest
	.byte NRest
	.byte NRest
	.byte NRest
	.byte NRest
	.byte NRest
	.byte NRest
	.byte NRest
	.byte NRest
	.byte NRest
	.byte NRest
	.byte E3
	.byte NRest
	.byte C3
	.byte $86
	.byte NRest
	.byte G2
	.byte A2
	.byte $92
	.byte C3
	.byte C3
	.byte $86
	.byte A2
	notelen 12
	.byte G2
	.byte C3
	.byte C3
	.byte $2B
	notelen 24
	.byte E3
	.byte $92
	.byte D3
	.byte $86
	.byte G2
	notelen 12
	.byte E3
	.byte NRest
	.byte C3
	.byte $86
	.byte NRest
	.byte G2
	.byte A2
	.byte $92
	.byte C3
	.byte C3
	.byte $86
	.byte A2
	notelen 12
	.byte G2
	.byte C3
	.byte $86
	.byte F3
	.byte E3
	notelen 12
	.byte D3
	notelen 24
	.byte C3
	.byte $92
	.byte NRest
	.byte $86
	.byte G2
	notelen 12
	.byte E3
	.byte NRest
	.byte C3
	.byte $86
	.byte NRest
	.byte G2
	.byte A2
	.byte $92
	.byte C3
	.byte C3
	.byte $86
	.byte A2
	notelen 12
	.byte G2
	.byte C3
	.byte C3
	.byte $2B
	notelen 24
	.byte E3
	.byte $92
	.byte D3
	.byte $86
	.byte G2
	notelen 12
	.byte E3
	.byte NRest
	.byte C3
	.byte $86
	.byte NRest
	.byte G2
	.byte A2
	.byte $92
	.byte C3
	.byte C3
	.byte $86
	.byte A2
	notelen 12
	.byte G2
	.byte C3
	.byte $86
	.byte F3
	.byte E3
	notelen 12
	.byte D3
	notelen 24
	.byte C3
	notelen 12
	.byte NRest
	.byte NRest
	.byte E3
	.byte NRest
	.byte $92
	.byte C3
	.byte $86
	.byte G2
	notelen 24
	.byte E3
	.byte C3
	.byte $86
	.byte $27
	.byte C3
	notelen 12
	.byte G2
	.byte $27
	notelen 48
	.byte D3
	notelen 12
	.byte NRest
	.byte E3
	.byte NRest
	.byte $92
	.byte C3
	.byte $86
	.byte G2
	notelen 24
	.byte E3
	.byte C3
	.byte $86
	.byte $27
	.byte C3
	notelen 12
	.byte G2
	notelen 48
	.byte $2B
	notelen 12
	.byte NRest
	.byte NRest
	.byte E3
	.byte NRest
	.byte C3
	.byte $86
	.byte NRest
	.byte G2
	.byte A2
	.byte $92
	.byte C3
	.byte C3
	.byte $86
	.byte D3
	.byte E3
	.byte C3
	notelen 12
	.byte G2
	notelen 24
	.byte A2
	.byte $A4
	.byte C3
	notelen 12
	.byte G2
	.byte $2B
	.byte A3
	.byte $2B
	.byte A3
	.byte $92
	.byte $2B
	.byte $86
	.byte G2
	.byte F3
	.byte E3
	.byte D3
	notelen 48
	.byte C3
	.byte $86
	.byte NRest
	notelen 12
	.byte NRest
	.byte NRest
	.byte NRest
	.byte NRest
	.byte NRest
	.byte NRest
	.byte NRest
	.byte NRest
	.byte NRest
	.byte NRest
	.byte NRest
	.byte NRest
	.byte NRest
	.byte NRest
	.byte NRest
	.byte NRest
	.byte NRest
	.byte NRest
	.byte NRest
	.byte NRest
	.byte NRest
	.byte NRest
	.byte NRest
	.byte NRest
	.byte NRest
	.byte NRest
	.byte NRest
	.byte NRest
	.byte NRest
	.byte NRest
	.byte NRest
	.byte NRest
	.byte NRest
	.byte NRest
	.byte NRest
	.byte NRest
	sndjump Overworld_TriLoop
	.byte $FF
Overworld_End:
	.byte $FF
Overworld_Footer:
	mussq1 Overworld_P1
	mussq2 Overworld_P2
	mustri Overworld_Tri
	musnoise Overworld_End
	musdpcm Overworld_End
	.byte $FF